<?xml version="1.0" encoding="UTF-8"?>
<svg width="572" height="118" viewBox="214 441 572 118" version="1.1" xmlns="http://www.w3.org/2000/svg" xmlns:xlink="http://www.w3.org/1999/xlink">
    <title>LunarCrush-WhiteLogo-IconTextHoriz-BlackBg</title>
    <g id="LunarCrush-WhiteLogo-IconTextHoriz-BlackBg" stroke="none" stroke-width="1" fill="none" fill-rule="evenodd">
        
        <g id="Group-2" transform="translate(214.000000, 441.000000)" fill="#FFFFFF">
            <path d="M68.3312808,49 C87.6197577,49 103.256158,64.4461761 103.256158,83.5 C103.256158,102.553824 87.6197577,118 68.3312808,118 C49.0428039,118 33.4064039,102.553824 33.4064039,83.5 C33.4064039,64.4461761 49.0428039,49 68.3312808,49 Z M68.6130092,0 C88.1506407,0.287286668 104.607205,7.33297173 118.434738,21.1370552 C139.077911,41.7452202 141.324269,74.2019807 130.980785,95.9310299 C130.836593,96.233941 130.475432,96.6356744 129.970016,96.5072222 C129.464599,96.3787699 129.494065,95.6958041 129.567635,95.3018402 C131.648968,84.1563498 132.386911,61.2091074 116.254041,44.1651074 C99.0193762,25.9570871 83.8752113,22.2491056 68.6130092,22.2491056 C53.3508072,22.2491056 34.3114167,28.4978553 20.854251,44.1651074 C5.28922395,62.2863973 5.43680522,84.289842 7.43996676,95.3117024 C7.50417145,95.6649716 7.70625471,96.2684685 7.13334377,96.5072222 C6.56043283,96.7459759 6.15957044,96.2266594 5.99709236,95.8844992 C-4.3210534,74.1556675 -2.06318072,41.7305152 18.5652623,21.1370552 C32.3927955,7.33297173 49.0753778,0.287286668 68.6130092,0 Z" id="Combined-Shape-Copy"></path>
            <g id="Group" transform="translate(174.000000, 28.000000)" fill-rule="nonzero">
                <path d="M142.746233,19.6502732 C154.043445,19.6502732 159.568358,25.0267034 159.568358,34.4561347 L159.568358,34.4561347 L159.568358,61.0074283 L151.074834,61.0074283 L151.074834,55.9618554 L150.662527,55.9618554 C148.271147,59.8494279 143.653308,62 137.798549,62 C128.975179,62 124.192418,57.4507129 124.192418,50.6681395 C124.192418,43.8855661 128.150565,39.9152792 137.633626,38.3437073 L137.633626,38.3437073 L145.467459,37.0202783 C149.425606,36.3585639 150.662527,35.862278 150.662527,34.2907061 C150.662527,29.4105618 148.271147,26.3501323 142.746233,26.3501323 C137.386242,26.3501323 134.582555,29.2451332 134.252709,33.463563 L134.252709,33.463563 L125.759185,33.463563 C126.253953,25.1094177 132.685942,19.6502732 142.746233,19.6502732 Z M50.6713346,20.2020202 L50.6713346,43.5502567 C50.6713346,51.5813876 54.1444283,54.3136281 59.2713761,54.3136281 C64.9771729,54.3136281 69.1118083,49.4287134 69.1118083,41.0664017 L69.1118083,41.0664017 L69.1118083,20.2020202 L78.0426207,20.2020202 L78.0426207,60.6060606 L69.5252718,60.6060606 L69.5252718,54.7276039 L69.194501,54.7276039 C66.8791052,59.281338 62.7444698,61.5996026 56.9559803,61.5996026 C48.852095,61.5996026 41.7405222,57.294254 41.7405222,44.709389 L41.7405222,44.709389 L41.7405222,20.2020202 L50.6713346,20.2020202 Z M220.287859,2.64944527 C233.932156,2.64944527 242.697583,10.3493956 244.930286,22.0235138 L244.930286,22.0235138 L235.420625,22.0235138 C233.436,14.8203345 228.391745,10.9289617 220.287859,10.9289617 C209.207036,10.9289617 202.012771,19.622454 202.012771,32.1245239 C202.012771,44.3782083 209.289729,53.3200861 220.039781,53.3200861 C228.805208,53.3200861 233.436,49.4287134 235.420625,42.225534 L235.420625,42.225534 L244.930286,42.225534 C242.697583,53.8996523 233.684078,61.5996026 219.957088,61.5996026 C203.253162,61.5996026 192.337724,49.263123 192.337724,32.1245239 C192.337724,15.2343103 203.50124,2.64944527 220.287859,2.64944527 Z M288.718831,20.2020202 L288.718831,43.5502567 C288.718831,51.5813876 292.191925,54.3136281 297.318872,54.3136281 C303.024669,54.3136281 307.159305,49.4287134 307.159305,41.0664017 L307.159305,41.0664017 L307.159305,20.2020202 L316.090117,20.2020202 L316.090117,60.6060606 L307.572768,60.6060606 L307.572768,54.7276039 L307.241997,54.7276039 C304.926602,59.281338 300.791966,61.5996026 295.003477,61.5996026 C286.899591,61.5996026 279.788019,57.294254 279.788019,44.709389 L279.788019,44.709389 L279.788019,20.2020202 L288.718831,20.2020202 Z M338.811317,19.2084782 C348.155592,19.2084782 355.515243,23.0170558 355.515243,31.4621626 L355.515243,31.4621626 L347.16328,31.4621626 C347.16328,27.4879947 343.607494,25.5009107 338.811317,25.5009107 C334.097832,25.5009107 330.542046,27.4879947 330.542046,31.0481868 C330.542046,33.7804272 332.443978,35.187945 337.240155,36.0158967 L337.240155,36.0158967 L344.682499,37.2578241 C351.049837,38.3341613 356.590249,40.8180162 356.590249,48.3523762 C356.590249,57.2114589 349.147905,61.5996026 338.397853,61.5996026 C328.309343,61.5996026 320.949692,57.4598443 320.949692,49.0147375 L320.949692,49.0147375 L329.467041,49.0147375 C329.467041,53.4856764 334.01514,55.3071701 338.397853,55.3071701 C344.599806,55.3071701 347.659436,53.1544958 347.659436,49.4287134 C347.659436,46.4480874 345.592119,45.20616 341.540176,44.5437986 L341.540176,44.5437986 L334.097832,43.219076 C327.895879,42.225534 321.942004,39.7416791 321.942004,32.1245239 C321.942004,23.8450075 329.301655,19.2084782 338.811317,19.2084782 Z M9.34427592,3.64298725 L9.34427592,52.5749296 L36.8809474,52.5749296 L36.8809474,60.6060606 L0,60.6060606 L0,3.64298725 L9.34427592,3.64298725 Z M104.319607,19.2084782 C112.340799,19.2084782 119.452372,23.5138268 119.452372,36.0986918 L119.452372,36.0986918 L119.452372,60.6060606 L110.52156,60.6060606 L110.52156,37.2578241 C110.52156,29.2266932 107.131159,26.4944527 101.921518,26.4944527 C96.2157213,26.4944527 91.8330078,31.3793674 91.8330078,39.4932936 L91.8330078,39.4932936 L91.8330078,60.6060606 L82.9021954,60.6060606 L82.9021954,20.2020202 L91.502237,20.2020202 L91.502237,26.0804769 L91.8330078,26.0804769 C94.1484036,21.5267428 98.4484244,19.2084782 104.319607,19.2084782 Z M184.162172,19.2084782 C185.816026,19.2084782 187.717958,19.4568637 189.785276,20.8643815 L189.785276,20.8643815 L187.46988,28.8127173 C185.650641,27.9019705 184.079479,27.4879947 182.508318,27.4879947 C176.47175,27.4879947 173.577505,33.3664514 173.577505,40.4040404 L173.577505,40.4040404 L173.577505,60.6060606 L164.646693,60.6060606 L164.646693,20.2020202 L173.246735,20.2020202 L173.246735,26.0804769 L173.494813,26.0804769 C175.479438,21.7751283 179.035224,19.2084782 184.162172,19.2084782 Z M269.30534,19.2084782 C270.959194,19.2084782 272.861126,19.4568637 274.928444,20.8643815 L274.928444,20.8643815 L272.613048,28.8127173 C270.793808,27.9019705 269.222647,27.4879947 267.651486,27.4879947 C261.614918,27.4879947 258.720673,33.3664514 258.720673,40.4040404 L258.720673,40.4040404 L258.720673,60.6060606 L249.789861,60.6060606 L249.789861,20.2020202 L258.389902,20.2020202 L258.389902,26.0804769 L258.63798,26.0804769 C260.622605,21.7751283 264.178392,19.2084782 269.30534,19.2084782 Z M370.380636,0 L370.38063,12.7177429 L370.379939,13.6852847 C370.375199,16.6526062 370.338229,21.4609313 370.049865,26.0804769 L370.049865,26.0804769 L370.380636,26.0804769 C372.696032,21.5267428 376.996052,19.2084782 382.867235,19.2084782 C390.888427,19.2084782 398,23.5138268 398,36.0986918 L398,36.0986918 L398,60.6060606 L389.069188,60.6060606 L389.069188,37.2578241 C389.069188,29.2266932 385.678787,26.4944527 380.469146,26.4944527 C374.680657,26.4944527 370.380636,31.6277529 370.380636,39.5760888 L370.380636,39.5760888 L370.380636,60.6060606 L361.449823,60.6060606 L361.449823,0 L370.380636,0 Z M151.108894,40.4401391 C150.278473,41.4376327 148.866757,42.0195039 146.956789,42.3520018 L146.956789,42.3520018 L139.981251,43.5157443 C135.247851,44.2638644 133.420924,46.341976 133.420924,49.5007056 C133.420924,52.8256842 135.746104,55.0700447 140.31342,55.0700447 C146.043326,55.0700447 151.108894,51.4956928 151.108894,44.18074 L151.108894,44.18074 Z" id="Combined-Shape"></path>
            </g>
        </g>
    </g>
</svg>